<?xml version="1.0" encoding="UTF-8"?>
<svg id="_x30_" xmlns="http://www.w3.org/2000/svg" version="1.1" viewBox="0 0 359.19 843">
  <!-- Generator: Adobe Illustrator 30.3.0, SVG Export Plug-In . SVG Version: 2.1.3 Build 182)  -->
  <defs>
    <style>
      .st0 {
        fill: none;
        stroke: #000;
        stroke-linecap: round;
        stroke-linejoin: round;
      }
    </style>
  </defs>
  <g id="LINE">
    <line class="st0" x1="296.97" y1="44" x2="283.19" y2="39.1"/>
  </g>
  <g id="LINE1" data-name="LINE">
    <line class="st0" x1="283.19" y1="39.1" x2="272.16" y2="35.78"/>
  </g>
  <g id="LINE2" data-name="LINE">
    <line class="st0" x1="259.36" y1="32.45" x2="249.32" y2="30.5"/>
  </g>
  <g id="LINE3" data-name="LINE">
    <line class="st0" x1="216.04" y1="23.67" x2="207.19" y2="22.5"/>
  </g>
  <g id="LINE4" data-name="LINE">
    <line class="st0" x1="207.19" y1="22.5" x2="199.11" y2="21.33"/>
  </g>
  <g id="LINE5" data-name="LINE">
    <line class="st0" x1="199.11" y1="21.33" x2="189.67" y2="20.76"/>
  </g>
  <g id="LINE6" data-name="LINE">
    <line class="st0" x1="215.65" y1="24.06" x2="213.27" y2="14.22"/>
  </g>
  <g id="LINE7" data-name="LINE">
    <line class="st0" x1="213.27" y1="14.22" x2="211.29" y2="6.94"/>
  </g>
  <g id="LINE8" data-name="LINE">
    <line class="st0" x1="211.29" y1="6.94" x2="209.52" y2="3.8"/>
  </g>
  <g id="LINE9" data-name="LINE">
    <line class="st0" x1="272.16" y1="35.78" x2="259.36" y2="32.45"/>
  </g>
  <g id="LINE10" data-name="LINE">
    <line class="st0" x1="226.65" y1="8.69" x2="253.22" y2="14.64"/>
  </g>
  <g id="LINE11" data-name="LINE">
    <line class="st0" x1="269.54" y1="19.35" x2="253.22" y2="14.64"/>
  </g>
  <g id="LINE12" data-name="LINE">
    <line class="st0" x1="213.85" y1="3.79" x2="218.55" y2="6.67"/>
  </g>
  <g id="LINE13" data-name="LINE">
    <line class="st0" x1="226.65" y1="8.69" x2="218.55" y2="6.67"/>
  </g>
  <g id="LINE14" data-name="LINE">
    <line class="st0" x1="245.4" y1="43.48" x2="271.23" y2="49.28"/>
  </g>
  <g id="LINE15" data-name="LINE">
    <line class="st0" x1="239.04" y1="49.58" x2="245.68" y2="86.45"/>
  </g>
  <g id="LINE16" data-name="LINE">
    <line class="st0" x1="221.95" y1="26.21" x2="216.04" y2="23.67"/>
  </g>
  <g id="LINE17" data-name="LINE">
    <line class="st0" x1="249.32" y1="30.5" x2="221.95" y2="26.21"/>
  </g>
  <g id="LINE18" data-name="LINE">
    <line class="st0" x1="214.04" y1="4.58" x2="218.84" y2="16.27"/>
  </g>
  <g id="LINE19" data-name="LINE">
    <line class="st0" x1="218.84" y1="16.27" x2="221.95" y2="26.21"/>
  </g>
  <g id="LINE20" data-name="LINE">
    <line class="st0" x1="249.3" y1="260.98" x2="266.43" y2="264.1"/>
  </g>
  <g id="LINE21" data-name="LINE">
    <line class="st0" x1="266.43" y1="264.1" x2="279.43" y2="268.21"/>
  </g>
  <g id="LINE22" data-name="LINE">
    <line class="st0" x1="279.43" y1="268.21" x2="290.85" y2="273.31"/>
  </g>
  <g id="LINE23" data-name="LINE">
    <line class="st0" x1="252.22" y1="242.67" x2="252.63" y2="251.72"/>
  </g>
  <g id="LINE24" data-name="LINE">
    <line class="st0" x1="252.63" y1="251.72" x2="252.25" y2="258.22"/>
  </g>
  <g id="LINE25" data-name="LINE">
    <line class="st0" x1="245.86" y1="240.06" x2="246.28" y2="244.79"/>
  </g>
  <g id="LINE26" data-name="LINE">
    <line class="st0" x1="246.28" y1="244.79" x2="246.55" y2="254.23"/>
  </g>
  <g id="LINE27" data-name="LINE">
    <line class="st0" x1="246.55" y1="254.23" x2="246.55" y2="258.22"/>
  </g>
  <g id="LINE28" data-name="LINE">
    <line class="st0" x1="276.28" y1="431.31" x2="273.04" y2="478.66"/>
  </g>
  <g id="LINE29" data-name="LINE">
    <line class="st0" x1="273.04" y1="478.66" x2="272.26" y2="514.79"/>
  </g>
  <g id="LINE30" data-name="LINE">
    <line class="st0" x1="272.26" y1="514.79" x2="272.45" y2="560.43"/>
  </g>
  <g id="LINE31" data-name="LINE">
    <line class="st0" x1="272.45" y1="560.43" x2="273.38" y2="586.8"/>
  </g>
  <g id="LINE32" data-name="LINE">
    <line class="st0" x1="273.38" y1="586.8" x2="274.06" y2="599.08"/>
  </g>
  <g id="LINE33" data-name="LINE">
    <line class="st0" x1="288.43" y1="717.54" x2="290.99" y2="718.32"/>
  </g>
  <g id="LINE34" data-name="LINE">
    <line class="st0" x1="290.99" y1="718.32" x2="292.57" y2="720.68"/>
  </g>
  <g id="LINE35" data-name="LINE">
    <line class="st0" x1="292.57" y1="720.68" x2="293.37" y2="733.28"/>
  </g>
  <g id="LINE36" data-name="LINE">
    <line class="st0" x1="290.2" y1="718.72" x2="283.72" y2="723.65"/>
  </g>
  <g id="LINE37" data-name="LINE">
    <line class="st0" x1="283.72" y1="723.65" x2="277.82" y2="728.77"/>
  </g>
  <g id="LINE38" data-name="LINE">
    <line class="st0" x1="277.82" y1="728.77" x2="269.17" y2="734.69"/>
  </g>
  <g id="LINE39" data-name="LINE">
    <line class="st0" x1="269.17" y1="734.69" x2="257.37" y2="741.21"/>
  </g>
  <g id="LINE40" data-name="LINE">
    <line class="st0" x1="279.45" y1="399.49" x2="276.28" y2="431.31"/>
  </g>
  <g id="LINE41" data-name="LINE">
    <line class="st0" x1="274.06" y1="599.08" x2="288.43" y2="717.54"/>
  </g>
  <g id="LINE42" data-name="LINE">
    <line class="st0" x1="291.37" y1="590.98" x2="287.4" y2="572.48"/>
  </g>
  <g id="LINE43" data-name="LINE">
    <line class="st0" x1="287.4" y1="572.48" x2="285.01" y2="550.44"/>
  </g>
  <g id="LINE44" data-name="LINE">
    <line class="st0" x1="285.01" y1="550.44" x2="283.71" y2="527.32"/>
  </g>
  <g id="LINE45" data-name="LINE">
    <line class="st0" x1="283.71" y1="527.32" x2="283.15" y2="495.93"/>
  </g>
  <g id="LINE46" data-name="LINE">
    <line class="st0" x1="283.15" y1="495.93" x2="283.5" y2="472.11"/>
  </g>
  <g id="LINE47" data-name="LINE">
    <line class="st0" x1="283.5" y1="472.11" x2="284.64" y2="446.72"/>
  </g>
  <g id="LINE48" data-name="LINE">
    <line class="st0" x1="284.64" y1="446.72" x2="286.37" y2="424.08"/>
  </g>
  <g id="LINE49" data-name="LINE">
    <line class="st0" x1="286.37" y1="424.08" x2="287.93" y2="409.91"/>
  </g>
  <g id="LINE50" data-name="LINE">
    <line class="st0" x1="287.93" y1="409.91" x2="289.48" y2="400.85"/>
  </g>
  <g id="LINE51" data-name="LINE">
    <line class="st0" x1="293.37" y1="733.28" x2="285.64" y2="815.36"/>
  </g>
  <g id="LINE52" data-name="LINE">
    <line class="st0" x1="278.56" y1="819.11" x2="297.95" y2="813.28"/>
  </g>
  <g id="LINE53" data-name="LINE">
    <line class="st0" x1="42.15" y1="156.95" x2="43.77" y2="129.79"/>
  </g>
  <g id="LINE54" data-name="LINE">
    <line class="st0" x1="43.77" y1="129.79" x2="46.58" y2="98.89"/>
  </g>
  <g id="LINE55" data-name="LINE">
    <line class="st0" x1="46.58" y1="98.89" x2="50.77" y2="63.27"/>
  </g>
  <g id="LINE56" data-name="LINE">
    <line class="st0" x1="50.77" y1="63.27" x2="53.16" y2="49.11"/>
  </g>
  <g id="LINE57" data-name="LINE">
    <line class="st0" x1="52.76" y1="48.71" x2="62.22" y2="44"/>
  </g>
  <g id="LINE58" data-name="LINE">
    <line class="st0" x1="62.22" y1="44" x2="76" y2="39.1"/>
  </g>
  <g id="LINE59" data-name="LINE">
    <line class="st0" x1="76" y1="39.1" x2="87.03" y2="35.78"/>
  </g>
  <g id="LINE60" data-name="LINE">
    <line class="st0" x1="99.83" y1="32.45" x2="109.87" y2="30.5"/>
  </g>
  <g id="LINE61" data-name="LINE">
    <line class="st0" x1="143.14" y1="23.67" x2="152" y2="22.5"/>
  </g>
  <g id="LINE62" data-name="LINE">
    <line class="st0" x1="152" y1="22.5" x2="160.08" y2="21.33"/>
  </g>
  <g id="LINE63" data-name="LINE">
    <line class="st0" x1="160.08" y1="21.33" x2="169.52" y2="20.76"/>
  </g>
  <g id="LINE64" data-name="LINE">
    <line class="st0" x1="143.54" y1="24.06" x2="145.92" y2="14.22"/>
  </g>
  <g id="LINE65" data-name="LINE">
    <line class="st0" x1="145.92" y1="14.22" x2="147.9" y2="6.94"/>
  </g>
  <g id="LINE66" data-name="LINE">
    <line class="st0" x1="147.9" y1="6.94" x2="149.67" y2="3.8"/>
  </g>
  <g id="LINE67" data-name="LINE">
    <line class="st0" x1="87.03" y1="35.78" x2="99.83" y2="32.45"/>
  </g>
  <g id="LINE68" data-name="LINE">
    <line class="st0" x1="58.34" y1="30.6" x2="89.65" y2="19.35"/>
  </g>
  <g id="LINE69" data-name="LINE">
    <line class="st0" x1="132.54" y1="8.69" x2="105.97" y2="14.64"/>
  </g>
  <g id="LINE70" data-name="LINE">
    <line class="st0" x1="89.65" y1="19.35" x2="105.97" y2="14.64"/>
  </g>
  <g id="LINE71" data-name="LINE">
    <line class="st0" x1="39.95" y1="55.09" x2="52.76" y2="48.71"/>
  </g>
  <g id="LINE72" data-name="LINE">
    <line class="st0" x1="145.34" y1="3.79" x2="140.64" y2="6.67"/>
  </g>
  <g id="LINE73" data-name="LINE">
    <line class="st0" x1="132.54" y1="8.69" x2="140.64" y2="6.67"/>
  </g>
  <g id="LINE74" data-name="LINE">
    <line class="st0" x1="106.86" y1="93.46" x2="59.59" y2="104.57"/>
  </g>
  <g id="LINE75" data-name="LINE">
    <line class="st0" x1="113.79" y1="43.48" x2="87.96" y2="49.28"/>
  </g>
  <g id="LINE76" data-name="LINE">
    <line class="st0" x1="120.15" y1="49.58" x2="113.51" y2="86.45"/>
  </g>
  <g id="LINE77" data-name="LINE">
    <line class="st0" x1="56.45" y1="62.53" x2="53.12" y2="98.95"/>
  </g>
  <g id="LINE78" data-name="LINE">
    <line class="st0" x1="60.13" y1="57.97" x2="87.96" y2="49.28"/>
  </g>
  <g id="LINE79" data-name="LINE">
    <line class="st0" x1="137.24" y1="26.21" x2="143.14" y2="23.67"/>
  </g>
  <g id="LINE80" data-name="LINE">
    <line class="st0" x1="109.87" y1="30.5" x2="137.24" y2="26.21"/>
  </g>
  <g id="LINE81" data-name="LINE">
    <line class="st0" x1="145.14" y1="4.58" x2="140.35" y2="16.27"/>
  </g>
  <g id="LINE82" data-name="LINE">
    <line class="st0" x1="140.35" y1="16.27" x2="137.24" y2="26.21"/>
  </g>
  <g id="LINE83" data-name="LINE">
    <line class="st0" x1="109.89" y1="260.98" x2="92.76" y2="264.1"/>
  </g>
  <g id="LINE84" data-name="LINE">
    <line class="st0" x1="92.76" y1="264.1" x2="79.76" y2="268.21"/>
  </g>
  <g id="LINE85" data-name="LINE">
    <line class="st0" x1="79.76" y1="268.21" x2="68.34" y2="273.31"/>
  </g>
  <g id="LINE86" data-name="LINE">
    <line class="st0" x1="50.99" y1="287.85" x2="47.44" y2="293.94"/>
  </g>
  <g id="LINE87" data-name="LINE">
    <line class="st0" x1="44.5" y1="290" x2="41.36" y2="282.32"/>
  </g>
  <g id="LINE88" data-name="LINE">
    <line class="st0" x1="41.36" y1="282.32" x2="39.01" y2="277.2"/>
  </g>
  <g id="LINE89" data-name="LINE">
    <line class="st0" x1="39.01" y1="277.2" x2="38.62" y2="272.87"/>
  </g>
  <g id="LINE90" data-name="LINE">
    <line class="st0" x1="38.62" y1="272.87" x2="38.27" y2="245.9"/>
  </g>
  <g id="LINE91" data-name="LINE">
    <line class="st0" x1="38.27" y1="245.9" x2="39.72" y2="203.19"/>
  </g>
  <g id="LINE92" data-name="LINE">
    <line class="st0" x1="106.96" y1="242.67" x2="106.56" y2="251.72"/>
  </g>
  <g id="LINE93" data-name="LINE">
    <line class="st0" x1="106.56" y1="251.72" x2="106.94" y2="258.22"/>
  </g>
  <g id="LINE94" data-name="LINE">
    <line class="st0" x1="47.44" y1="293.94" x2="79.74" y2="399.49"/>
  </g>
  <g id="LINE95" data-name="LINE">
    <line class="st0" x1="113.33" y1="240.06" x2="112.91" y2="244.79"/>
  </g>
  <g id="LINE96" data-name="LINE">
    <line class="st0" x1="112.91" y1="244.79" x2="112.64" y2="254.23"/>
  </g>
  <g id="LINE97" data-name="LINE">
    <line class="st0" x1="112.64" y1="254.23" x2="112.64" y2="258.22"/>
  </g>
  <g id="LINE98" data-name="LINE">
    <line class="st0" x1="82.91" y1="431.31" x2="86.15" y2="478.66"/>
  </g>
  <g id="LINE99" data-name="LINE">
    <line class="st0" x1="86.15" y1="478.66" x2="86.93" y2="514.79"/>
  </g>
  <g id="LINE100" data-name="LINE">
    <line class="st0" x1="86.93" y1="514.79" x2="86.74" y2="560.43"/>
  </g>
  <g id="LINE101" data-name="LINE">
    <line class="st0" x1="86.74" y1="560.43" x2="85.8" y2="586.8"/>
  </g>
  <g id="LINE102" data-name="LINE">
    <line class="st0" x1="85.8" y1="586.8" x2="85.12" y2="599.08"/>
  </g>
  <g id="LINE103" data-name="LINE">
    <line class="st0" x1="70.76" y1="717.54" x2="68.2" y2="718.32"/>
  </g>
  <g id="LINE104" data-name="LINE">
    <line class="st0" x1="68.2" y1="718.32" x2="66.62" y2="720.68"/>
  </g>
  <g id="LINE105" data-name="LINE">
    <line class="st0" x1="66.62" y1="720.68" x2="65.81" y2="733.28"/>
  </g>
  <g id="LINE106" data-name="LINE">
    <line class="st0" x1="68.99" y1="718.72" x2="75.47" y2="723.65"/>
  </g>
  <g id="LINE107" data-name="LINE">
    <line class="st0" x1="75.47" y1="723.65" x2="81.37" y2="728.77"/>
  </g>
  <g id="LINE108" data-name="LINE">
    <line class="st0" x1="81.37" y1="728.77" x2="90.02" y2="734.69"/>
  </g>
  <g id="LINE109" data-name="LINE">
    <line class="st0" x1="90.02" y1="734.69" x2="101.82" y2="741.21"/>
  </g>
  <g id="LINE110" data-name="LINE">
    <line class="st0" x1="39.34" y1="676.15" x2="43.02" y2="712.57"/>
  </g>
  <g id="LINE111" data-name="LINE">
    <line class="st0" x1="43.02" y1="712.57" x2="45.54" y2="736.59"/>
  </g>
  <g id="LINE112" data-name="LINE">
    <line class="st0" x1="45.54" y1="736.59" x2="52.74" y2="786.99"/>
  </g>
  <g id="LINE113" data-name="LINE">
    <line class="st0" x1="52.74" y1="786.99" x2="55.85" y2="805.69"/>
  </g>
  <g id="LINE114" data-name="LINE">
    <line class="st0" x1="42.56" y1="633.65" x2="43.92" y2="643.29"/>
  </g>
  <g id="LINE115" data-name="LINE">
    <line class="st0" x1="43.92" y1="643.29" x2="46.45" y2="659.44"/>
  </g>
  <g id="LINE116" data-name="LINE">
    <line class="st0" x1="46.45" y1="659.44" x2="50.75" y2="676.37"/>
  </g>
  <g id="LINE117" data-name="LINE">
    <line class="st0" x1="50.75" y1="676.37" x2="54.27" y2="692.32"/>
  </g>
  <g id="LINE118" data-name="LINE">
    <line class="st0" x1="54.27" y1="692.32" x2="59.56" y2="703.55"/>
  </g>
  <g id="LINE119" data-name="LINE">
    <line class="st0" x1="59.56" y1="703.55" x2="66.43" y2="715.17"/>
  </g>
  <g id="LINE120" data-name="LINE">
    <line class="st0" x1="34.01" y1="322.85" x2="31.06" y2="323.83"/>
  </g>
  <g id="LINE121" data-name="LINE">
    <line class="st0" x1="31.06" y1="323.83" x2="21.8" y2="328.34"/>
  </g>
  <g id="LINE122" data-name="LINE">
    <line class="st0" x1="21.8" y1="328.34" x2="7.02" y2="338.55"/>
  </g>
  <g id="LINE123" data-name="LINE">
    <line class="st0" x1="7.02" y1="338.55" x2="2.68" y2="343.07"/>
  </g>
  <g id="LINE124" data-name="LINE">
    <line class="st0" x1="2.68" y1="343.07" x2=".9" y2="346.61"/>
  </g>
  <g id="LINE125" data-name="LINE">
    <line class="st0" x1=".9" y1="346.61" x2=".51" y2="349.96"/>
  </g>
  <g id="LINE126" data-name="LINE">
    <line class="st0" x1=".51" y1="349.96" x2=".5" y2="353.5"/>
  </g>
  <g id="LINE127" data-name="LINE">
    <line class="st0" x1=".5" y1="353.5" x2="33.37" y2="350.8"/>
  </g>
  <g id="LINE128" data-name="LINE">
    <line class="st0" x1="33.37" y1="350.8" x2="34.96" y2="342.73"/>
  </g>
  <g id="LINE129" data-name="LINE">
    <line class="st0" x1="34.96" y1="342.73" x2="36.95" y2="328.76"/>
  </g>
  <g id="LINE130" data-name="LINE">
    <line class="st0" x1="36.95" y1="328.76" x2="36.76" y2="324.43"/>
  </g>
  <g id="LINE131" data-name="LINE">
    <line class="st0" x1="30.5" y1="301.79" x2="30.08" y2="321.27"/>
  </g>
  <g id="LINE132" data-name="LINE">
    <line class="st0" x1="29.83" y1="350.01" x2="30.18" y2="378.55"/>
  </g>
  <g id="LINE133" data-name="LINE">
    <line class="st0" x1="18.76" y1="204.54" x2="18.02" y2="256.44"/>
  </g>
  <g id="LINE134" data-name="LINE">
    <line class="st0" x1="18.02" y1="256.44" x2="18.05" y2="331.09"/>
  </g>
  <g id="LINE135" data-name="LINE">
    <line class="st0" x1="20.3" y1="522.41" x2="23.45" y2="522.8"/>
  </g>
  <g id="LINE136" data-name="LINE">
    <line class="st0" x1="23.45" y1="522.8" x2="27.98" y2="522.03"/>
  </g>
  <g id="LINE137" data-name="LINE">
    <line class="st0" x1="27.98" y1="522.03" x2="31.72" y2="520.46"/>
  </g>
  <g id="LINE138" data-name="LINE">
    <line class="st0" x1="31.72" y1="520.46" x2="35.26" y2="519.48"/>
  </g>
  <g id="LINE139" data-name="LINE">
    <line class="st0" x1="30.52" y1="412.4" x2="30.47" y2="444.09"/>
  </g>
  <g id="LINE140" data-name="LINE">
    <line class="st0" x1="30.47" y1="444.09" x2="31" y2="479.91"/>
  </g>
  <g id="LINE141" data-name="LINE">
    <line class="st0" x1="31" y1="479.91" x2="30.96" y2="503.92"/>
  </g>
  <g id="LINE142" data-name="LINE">
    <line class="st0" x1="33.21" y1="569.86" x2="33.76" y2="595.25"/>
  </g>
  <g id="LINE143" data-name="LINE">
    <line class="st0" x1="18.46" y1="421.86" x2="18.46" y2="446.23"/>
  </g>
  <g id="LINE144" data-name="LINE">
    <line class="st0" x1="17.39" y1="507.26" x2="18.15" y2="523.01"/>
  </g>
  <g id="LINE145" data-name="LINE">
    <line class="st0" x1="35.29" y1="624.58" x2="36.82" y2="650.17"/>
  </g>
  <g id="LINE146" data-name="LINE">
    <line class="st0" x1="18.36" y1="635.78" x2="20.06" y2="677.32"/>
  </g>
  <g id="LINE147" data-name="LINE">
    <line class="st0" x1="20.06" y1="677.32" x2="26.93" y2="751.13"/>
  </g>
  <g id="LINE148" data-name="LINE">
    <line class="st0" x1="26.93" y1="751.13" x2="34.64" y2="790.12"/>
  </g>
  <g id="LINE149" data-name="LINE">
    <line class="st0" x1="37.55" y1="322.66" x2="34.01" y2="322.85"/>
  </g>
  <g id="LINE150" data-name="LINE">
    <line class="st0" x1="35.16" y1="342.34" x2="40.28" y2="342.35"/>
  </g>
  <g id="LINE151" data-name="LINE">
    <line class="st0" x1="39.72" y1="203.19" x2="42.15" y2="156.95"/>
  </g>
  <g id="LINE152" data-name="LINE">
    <line class="st0" x1="30.18" y1="378.55" x2="30.52" y2="412.4"/>
  </g>
  <g id="LINE153" data-name="LINE">
    <line class="st0" x1="33.76" y1="595.25" x2="35.29" y2="624.58"/>
  </g>
  <g id="LINE154" data-name="LINE">
    <line class="st0" x1="36.82" y1="650.17" x2="39.34" y2="676.15"/>
  </g>
  <g id="LINE155" data-name="LINE">
    <line class="st0" x1="17.81" y1="608.23" x2="18.36" y2="635.78"/>
  </g>
  <g id="LINE156" data-name="LINE">
    <line class="st0" x1="42.22" y1="47.08" x2="37.14" y2="65.04"/>
  </g>
  <g id="LINE157" data-name="LINE">
    <line class="st0" x1="79.74" y1="399.49" x2="82.91" y2="431.31"/>
  </g>
  <g id="LINE158" data-name="LINE">
    <line class="st0" x1="85.12" y1="599.08" x2="70.76" y2="717.54"/>
  </g>
  <g id="LINE159" data-name="LINE">
    <line class="st0" x1="68.34" y1="273.31" x2="57.3" y2="281.23"/>
  </g>
  <g id="LINE160" data-name="LINE">
    <line class="st0" x1="57.3" y1="281.23" x2="50.99" y2="287.85"/>
  </g>
  <g id="LINE161" data-name="LINE">
    <line class="st0" x1="41.85" y1="321.27" x2="40.28" y2="342.35"/>
  </g>
  <g id="LINE162" data-name="LINE">
    <line class="st0" x1="40.28" y1="342.35" x2="38.47" y2="365.92"/>
  </g>
  <g id="LINE163" data-name="LINE">
    <line class="st0" x1="38.47" y1="365.92" x2="36.64" y2="400.83"/>
  </g>
  <g id="LINE164" data-name="LINE">
    <line class="st0" x1="36.64" y1="400.83" x2="35.55" y2="441.43"/>
  </g>
  <g id="LINE165" data-name="LINE">
    <line class="st0" x1="35.55" y1="441.43" x2="34.96" y2="480.58"/>
  </g>
  <g id="LINE166" data-name="LINE">
    <line class="st0" x1="34.96" y1="480.58" x2="35.11" y2="503.52"/>
  </g>
  <g id="LINE167" data-name="LINE">
    <line class="st0" x1="35.11" y1="503.52" x2="35.26" y2="519.48"/>
  </g>
  <g id="LINE168" data-name="LINE">
    <line class="st0" x1="35.26" y1="519.48" x2="35.91" y2="536.82"/>
  </g>
  <g id="LINE169" data-name="LINE">
    <line class="st0" x1="35.91" y1="536.82" x2="37.3" y2="560.56"/>
  </g>
  <g id="LINE170" data-name="LINE">
    <line class="st0" x1="37.3" y1="560.56" x2="38.32" y2="581.59"/>
  </g>
  <g id="LINE171" data-name="LINE">
    <line class="st0" x1="38.32" y1="581.59" x2="38.89" y2="588.96"/>
  </g>
  <g id="LINE172" data-name="LINE">
    <line class="st0" x1="38.89" y1="588.96" x2="42.57" y2="622.03"/>
  </g>
  <g id="LINE173" data-name="LINE">
    <line class="st0" x1="42.57" y1="622.03" x2="44.33" y2="633.45"/>
  </g>
  <g id="LINE174" data-name="LINE">
    <line class="st0" x1="44.33" y1="633.45" x2="47.27" y2="638.77"/>
  </g>
  <g id="LINE175" data-name="LINE">
    <line class="st0" x1="47.27" y1="638.77" x2="51.45" y2="639.55"/>
  </g>
  <g id="LINE176" data-name="LINE">
    <line class="st0" x1="51.45" y1="639.55" x2="54.55" y2="638.39"/>
  </g>
  <g id="LINE177" data-name="LINE">
    <line class="st0" x1="54.55" y1="638.39" x2="67.82" y2="590.98"/>
  </g>
  <g id="LINE178" data-name="LINE">
    <line class="st0" x1="67.82" y1="590.98" x2="71.78" y2="572.48"/>
  </g>
  <g id="LINE179" data-name="LINE">
    <line class="st0" x1="71.78" y1="572.48" x2="74.18" y2="550.44"/>
  </g>
  <g id="LINE180" data-name="LINE">
    <line class="st0" x1="74.18" y1="550.44" x2="75.48" y2="527.32"/>
  </g>
  <g id="LINE181" data-name="LINE">
    <line class="st0" x1="75.48" y1="527.32" x2="76.04" y2="495.93"/>
  </g>
  <g id="LINE182" data-name="LINE">
    <line class="st0" x1="76.04" y1="495.93" x2="75.69" y2="472.11"/>
  </g>
  <g id="LINE183" data-name="LINE">
    <line class="st0" x1="75.69" y1="472.11" x2="74.55" y2="446.72"/>
  </g>
  <g id="LINE184" data-name="LINE">
    <line class="st0" x1="74.55" y1="446.72" x2="72.81" y2="424.08"/>
  </g>
  <g id="LINE185" data-name="LINE">
    <line class="st0" x1="72.81" y1="424.08" x2="71.26" y2="409.91"/>
  </g>
  <g id="LINE186" data-name="LINE">
    <line class="st0" x1="71.26" y1="409.91" x2="69.71" y2="400.85"/>
  </g>
  <g id="LINE187" data-name="LINE">
    <line class="st0" x1="69.71" y1="400.85" x2="38.56" y2="307.7"/>
  </g>
  <g id="LINE188" data-name="LINE">
    <line class="st0" x1="38.56" y1="307.7" x2="35.61" y2="304.94"/>
  </g>
  <g id="LINE189" data-name="LINE">
    <line class="st0" x1="35.61" y1="304.94" x2="30.5" y2="301.79"/>
  </g>
  <g id="LINE190" data-name="LINE">
    <line class="st0" x1="30.5" y1="301.79" x2="26.76" y2="300.01"/>
  </g>
  <g id="LINE191" data-name="LINE">
    <line class="st0" x1="26.76" y1="300.01" x2="21.45" y2="298.03"/>
  </g>
  <g id="LINE192" data-name="LINE">
    <line class="st0" x1="21.45" y1="298.03" x2="18.04" y2="297.41"/>
  </g>
  <g id="LINE193" data-name="LINE">
    <line class="st0" x1="40.28" y1="342.35" x2="48.93" y2="347.28"/>
  </g>
  <g id="LINE194" data-name="LINE">
    <line class="st0" x1="65.81" y1="733.28" x2="73.55" y2="815.36"/>
  </g>
  <g id="LINE195" data-name="LINE">
    <line class="st0" x1="80.63" y1="819.11" x2="61.24" y2="813.28"/>
  </g>
  <g id="LINE196" data-name="LINE">
    <line class="st0" x1="34.64" y1="790.12" x2="39.15" y2="803.64"/>
  </g>
  <g id="LINE197" data-name="LINE">
    <line class="st0" x1="39.15" y1="803.64" x2="43.24" y2="813.22"/>
  </g>
  <g id="LINE198" data-name="LINE">
    <line class="st0" x1="189.67" y1="20.76" x2="179.59" y2="20.33"/>
  </g>
  <g id="LINE199" data-name="LINE">
    <line class="st0" x1="169.52" y1="20.76" x2="179.59" y2="20.33"/>
  </g>
  <g id="LINE200" data-name="LINE">
    <line class="st0" x1="17.39" y1="475.39" x2="17.39" y2="507.26"/>
  </g>
  <g id="LINE201" data-name="LINE">
    <line class="st0" x1="18.6" y1="473.62" x2="17.39" y2="475.39"/>
  </g>
  <g id="LINE202" data-name="LINE">
    <line class="st0" x1="18.02" y1="352.55" x2="18.58" y2="473.41"/>
  </g>
  <g id="LINE203" data-name="LINE">
    <line class="st0" x1="33.21" y1="569.86" x2="31.28" y2="520.84"/>
  </g>
  <g id="LINE204" data-name="LINE">
    <line class="st0" x1="30.96" y1="503.92" x2="31.28" y2="520.84"/>
  </g>
  <g id="LINE205" data-name="LINE">
    <line class="st0" x1="35.26" y1="519.48" x2="75.1" y2="533.98"/>
  </g>
  <g id="LINE206" data-name="LINE">
    <line class="st0" x1="18.15" y1="523.01" x2="17.81" y2="608.23"/>
  </g>
  <g id="LINE207" data-name="LINE">
    <line class="st0" x1="18.05" y1="520.95" x2="20.3" y2="522.41"/>
  </g>
  <g id="LINE208" data-name="LINE">
    <line class="st0" x1="312.61" y1="98.89" x2="308.42" y2="63.27"/>
  </g>
  <g id="LINE209" data-name="LINE">
    <line class="st0" x1="308.42" y1="63.27" x2="306.03" y2="49.11"/>
  </g>
  <g id="LINE210" data-name="LINE">
    <line class="st0" x1="302.74" y1="62.53" x2="306.07" y2="98.95"/>
  </g>
  <g id="LINE211" data-name="LINE">
    <line class="st0" x1="308.2" y1="287.85" x2="311.75" y2="293.94"/>
  </g>
  <g id="LINE212" data-name="LINE">
    <line class="st0" x1="313.65" y1="736.59" x2="306.45" y2="786.99"/>
  </g>
  <g id="LINE213" data-name="LINE">
    <line class="st0" x1="306.45" y1="786.99" x2="303.33" y2="805.69"/>
  </g>
  <g id="LINE214" data-name="LINE">
    <line class="st0" x1="312.74" y1="659.44" x2="308.44" y2="676.37"/>
  </g>
  <g id="LINE215" data-name="LINE">
    <line class="st0" x1="308.44" y1="676.37" x2="304.92" y2="692.32"/>
  </g>
  <g id="LINE216" data-name="LINE">
    <line class="st0" x1="304.92" y1="692.32" x2="299.62" y2="703.55"/>
  </g>
  <g id="LINE217" data-name="LINE">
    <line class="st0" x1="301.89" y1="281.23" x2="308.2" y2="287.85"/>
  </g>
  <g id="LINE218" data-name="LINE">
    <line class="st0" x1="311.92" y1="638.77" x2="307.74" y2="639.55"/>
  </g>
  <g id="LINE219" data-name="LINE">
    <line class="st0" x1="307.74" y1="639.55" x2="304.64" y2="638.39"/>
  </g>
  <g id="LINE220" data-name="LINE">
    <line class="st0" x1="306.43" y1="48.71" x2="296.97" y2="44"/>
  </g>
  <g id="LINE221" data-name="LINE">
    <line class="st0" x1="300.85" y1="30.6" x2="269.54" y2="19.35"/>
  </g>
  <g id="LINE222" data-name="LINE">
    <line class="st0" x1="252.33" y1="93.46" x2="299.59" y2="104.57"/>
  </g>
  <g id="LINE223" data-name="LINE">
    <line class="st0" x1="299.05" y1="57.97" x2="271.23" y2="49.28"/>
  </g>
  <g id="LINE224" data-name="LINE">
    <line class="st0" x1="311.75" y1="293.94" x2="279.45" y2="399.49"/>
  </g>
  <g id="LINE225" data-name="LINE">
    <line class="st0" x1="299.62" y1="703.55" x2="292.75" y2="715.17"/>
  </g>
  <g id="LINE226" data-name="LINE">
    <line class="st0" x1="290.85" y1="273.31" x2="301.89" y2="281.23"/>
  </g>
  <g id="LINE227" data-name="LINE">
    <line class="st0" x1="304.64" y1="638.39" x2="291.37" y2="590.98"/>
  </g>
  <g id="LINE228" data-name="LINE">
    <line class="st0" x1="317.03" y1="156.95" x2="315.42" y2="129.79"/>
  </g>
  <g id="LINE229" data-name="LINE">
    <line class="st0" x1="314.69" y1="290" x2="317.83" y2="282.32"/>
  </g>
  <g id="LINE230" data-name="LINE">
    <line class="st0" x1="317.83" y1="282.32" x2="320.18" y2="277.2"/>
  </g>
  <g id="LINE231" data-name="LINE">
    <line class="st0" x1="320.18" y1="277.2" x2="320.57" y2="272.87"/>
  </g>
  <g id="LINE232" data-name="LINE">
    <line class="st0" x1="320.57" y1="272.87" x2="320.92" y2="245.9"/>
  </g>
  <g id="LINE233" data-name="LINE">
    <line class="st0" x1="320.92" y1="245.9" x2="319.47" y2="203.19"/>
  </g>
  <g id="LINE234" data-name="LINE">
    <line class="st0" x1="319.85" y1="676.15" x2="316.17" y2="712.57"/>
  </g>
  <g id="LINE235" data-name="LINE">
    <line class="st0" x1="316.63" y1="633.65" x2="315.27" y2="643.29"/>
  </g>
  <g id="LINE236" data-name="LINE">
    <line class="st0" x1="325.18" y1="322.85" x2="328.13" y2="323.83"/>
  </g>
  <g id="LINE237" data-name="LINE">
    <line class="st0" x1="328.13" y1="323.83" x2="337.39" y2="328.34"/>
  </g>
  <g id="LINE238" data-name="LINE">
    <line class="st0" x1="337.39" y1="328.34" x2="352.17" y2="338.55"/>
  </g>
  <g id="LINE239" data-name="LINE">
    <line class="st0" x1="352.17" y1="338.55" x2="356.51" y2="343.07"/>
  </g>
  <g id="LINE240" data-name="LINE">
    <line class="st0" x1="356.51" y1="343.07" x2="358.28" y2="346.61"/>
  </g>
  <g id="LINE241" data-name="LINE">
    <line class="st0" x1="358.28" y1="346.61" x2="358.68" y2="349.96"/>
  </g>
  <g id="LINE242" data-name="LINE">
    <line class="st0" x1="358.68" y1="349.96" x2="358.69" y2="353.5"/>
  </g>
  <g id="LINE243" data-name="LINE">
    <line class="st0" x1="358.69" y1="353.5" x2="325.82" y2="350.8"/>
  </g>
  <g id="LINE244" data-name="LINE">
    <line class="st0" x1="325.82" y1="350.8" x2="324.23" y2="342.73"/>
  </g>
  <g id="LINE245" data-name="LINE">
    <line class="st0" x1="324.23" y1="342.73" x2="322.24" y2="328.76"/>
  </g>
  <g id="LINE246" data-name="LINE">
    <line class="st0" x1="322.24" y1="328.76" x2="322.43" y2="324.43"/>
  </g>
  <g id="LINE247" data-name="LINE">
    <line class="st0" x1="328.69" y1="301.79" x2="329.11" y2="321.27"/>
  </g>
  <g id="LINE248" data-name="LINE">
    <line class="st0" x1="329.36" y1="350.01" x2="329.01" y2="378.55"/>
  </g>
  <g id="LINE249" data-name="LINE">
    <line class="st0" x1="340.43" y1="204.54" x2="341.17" y2="256.44"/>
  </g>
  <g id="LINE250" data-name="LINE">
    <line class="st0" x1="341.17" y1="256.44" x2="341.14" y2="331.09"/>
  </g>
  <g id="LINE251" data-name="LINE">
    <line class="st0" x1="338.89" y1="522.41" x2="335.74" y2="522.8"/>
  </g>
  <g id="LINE252" data-name="LINE">
    <line class="st0" x1="335.74" y1="522.8" x2="331.21" y2="522.03"/>
  </g>
  <g id="LINE253" data-name="LINE">
    <line class="st0" x1="328.67" y1="412.4" x2="328.72" y2="444.09"/>
  </g>
  <g id="LINE254" data-name="LINE">
    <line class="st0" x1="328.72" y1="444.09" x2="328.19" y2="479.91"/>
  </g>
  <g id="LINE255" data-name="LINE">
    <line class="st0" x1="328.19" y1="479.91" x2="328.23" y2="503.92"/>
  </g>
  <g id="LINE256" data-name="LINE">
    <line class="st0" x1="325.98" y1="569.86" x2="325.43" y2="595.25"/>
  </g>
  <g id="LINE257" data-name="LINE">
    <line class="st0" x1="323.9" y1="624.58" x2="322.37" y2="650.17"/>
  </g>
  <g id="LINE258" data-name="LINE">
    <line class="st0" x1="340.83" y1="635.78" x2="339.13" y2="677.32"/>
  </g>
  <g id="LINE259" data-name="LINE">
    <line class="st0" x1="339.13" y1="677.32" x2="332.26" y2="751.13"/>
  </g>
  <g id="LINE260" data-name="LINE">
    <line class="st0" x1="332.26" y1="751.13" x2="324.55" y2="790.12"/>
  </g>
  <g id="LINE261" data-name="LINE">
    <line class="st0" x1="321.64" y1="322.66" x2="325.18" y2="322.85"/>
  </g>
  <g id="LINE262" data-name="LINE">
    <line class="st0" x1="324.03" y1="342.34" x2="318.91" y2="342.35"/>
  </g>
  <g id="LINE263" data-name="LINE">
    <line class="st0" x1="319.47" y1="203.19" x2="317.03" y2="156.95"/>
  </g>
  <g id="LINE264" data-name="LINE">
    <line class="st0" x1="329.01" y1="378.55" x2="328.67" y2="412.4"/>
  </g>
  <g id="LINE265" data-name="LINE">
    <line class="st0" x1="325.43" y1="595.25" x2="323.9" y2="624.58"/>
  </g>
  <g id="LINE266" data-name="LINE">
    <line class="st0" x1="322.37" y1="650.17" x2="319.85" y2="676.15"/>
  </g>
  <g id="LINE267" data-name="LINE">
    <line class="st0" x1="341.38" y1="608.23" x2="340.83" y2="635.78"/>
  </g>
  <g id="LINE268" data-name="LINE">
    <line class="st0" x1="316.97" y1="47.08" x2="322.05" y2="65.04"/>
  </g>
  <g id="LINE269" data-name="LINE">
    <line class="st0" x1="317.34" y1="321.27" x2="318.91" y2="342.35"/>
  </g>
  <g id="LINE270" data-name="LINE">
    <line class="st0" x1="318.91" y1="342.35" x2="320.72" y2="365.92"/>
  </g>
  <g id="LINE271" data-name="LINE">
    <line class="st0" x1="320.72" y1="365.92" x2="322.55" y2="400.83"/>
  </g>
  <g id="LINE272" data-name="LINE">
    <line class="st0" x1="322.55" y1="400.83" x2="323.64" y2="441.43"/>
  </g>
  <g id="LINE273" data-name="LINE">
    <line class="st0" x1="323.64" y1="441.43" x2="324.23" y2="480.58"/>
  </g>
  <g id="LINE274" data-name="LINE">
    <line class="st0" x1="324.23" y1="480.58" x2="324.08" y2="503.52"/>
  </g>
  <g id="LINE275" data-name="LINE">
    <line class="st0" x1="324.08" y1="503.52" x2="323.93" y2="519.48"/>
  </g>
  <g id="LINE276" data-name="LINE">
    <line class="st0" x1="323.93" y1="519.48" x2="323.28" y2="536.82"/>
  </g>
  <g id="LINE277" data-name="LINE">
    <line class="st0" x1="323.28" y1="536.82" x2="321.89" y2="560.56"/>
  </g>
  <g id="LINE278" data-name="LINE">
    <line class="st0" x1="321.89" y1="560.56" x2="320.87" y2="581.59"/>
  </g>
  <g id="LINE279" data-name="LINE">
    <line class="st0" x1="320.87" y1="581.59" x2="320.3" y2="588.96"/>
  </g>
  <g id="LINE280" data-name="LINE">
    <line class="st0" x1="320.3" y1="588.96" x2="316.61" y2="622.03"/>
  </g>
  <g id="LINE281" data-name="LINE">
    <line class="st0" x1="316.61" y1="622.03" x2="314.86" y2="633.45"/>
  </g>
  <g id="LINE282" data-name="LINE">
    <line class="st0" x1="320.63" y1="307.7" x2="323.58" y2="304.94"/>
  </g>
  <g id="LINE283" data-name="LINE">
    <line class="st0" x1="323.58" y1="304.94" x2="328.69" y2="301.79"/>
  </g>
  <g id="LINE284" data-name="LINE">
    <line class="st0" x1="328.69" y1="301.79" x2="332.42" y2="300.01"/>
  </g>
  <g id="LINE285" data-name="LINE">
    <line class="st0" x1="332.42" y1="300.01" x2="337.73" y2="298.03"/>
  </g>
  <g id="LINE286" data-name="LINE">
    <line class="st0" x1="337.73" y1="298.03" x2="341.15" y2="297.41"/>
  </g>
  <g id="LINE287" data-name="LINE">
    <line class="st0" x1="324.55" y1="790.12" x2="320.04" y2="803.64"/>
  </g>
  <g id="LINE288" data-name="LINE">
    <line class="st0" x1="320.04" y1="803.64" x2="315.95" y2="813.22"/>
  </g>
  <g id="LINE289" data-name="LINE">
    <line class="st0" x1="341.8" y1="475.39" x2="341.8" y2="507.26"/>
  </g>
  <g id="LINE290" data-name="LINE">
    <line class="st0" x1="340.59" y1="473.62" x2="341.8" y2="475.39"/>
  </g>
  <g id="LINE291" data-name="LINE">
    <line class="st0" x1="341.17" y1="352.55" x2="340.61" y2="473.41"/>
  </g>
  <g id="LINE292" data-name="LINE">
    <line class="st0" x1="331.21" y1="522.03" x2="327.75" y2="520.84"/>
  </g>
  <g id="LINE293" data-name="LINE">
    <line class="st0" x1="327.75" y1="520.84" x2="323.93" y2="519.48"/>
  </g>
  <g id="LINE294" data-name="LINE">
    <line class="st0" x1="328.23" y1="503.92" x2="327.91" y2="520.84"/>
  </g>
  <g id="LINE295" data-name="LINE">
    <line class="st0" x1="325.98" y1="569.86" x2="327.91" y2="520.84"/>
  </g>
  <g id="LINE296" data-name="LINE">
    <line class="st0" x1="341.8" y1="507.26" x2="341.04" y2="523.01"/>
  </g>
  <g id="LINE297" data-name="LINE">
    <line class="st0" x1="341.14" y1="520.95" x2="338.89" y2="522.41"/>
  </g>
  <g id="LINE298" data-name="LINE">
    <line class="st0" x1="341.04" y1="523.01" x2="341.38" y2="608.23"/>
  </g>
  <g id="LINE299" data-name="LINE">
    <line class="st0" x1="315.42" y1="129.79" x2="312.61" y2="98.89"/>
  </g>
  <g id="LINE300" data-name="LINE">
    <line class="st0" x1="319.24" y1="55.09" x2="306.43" y2="48.71"/>
  </g>
  <g id="LINE301" data-name="LINE">
    <line class="st0" x1="316.17" y1="712.57" x2="313.65" y2="736.59"/>
  </g>
  <g id="LINE302" data-name="LINE">
    <line class="st0" x1="315.27" y1="643.29" x2="312.74" y2="659.44"/>
  </g>
  <g id="LINE303" data-name="LINE">
    <line class="st0" x1="314.86" y1="633.45" x2="311.92" y2="638.77"/>
  </g>
  <g id="LINE304" data-name="LINE">
    <line class="st0" x1="318.91" y1="342.35" x2="310.26" y2="347.28"/>
  </g>
  <g id="LINE305" data-name="LINE">
    <line class="st0" x1="289.48" y1="400.85" x2="320.63" y2="307.7"/>
  </g>
  <g id="LINE306" data-name="LINE">
    <line class="st0" x1="323.93" y1="519.48" x2="284.08" y2="533.98"/>
  </g>
  <g id="ARC">
    <path class="st0" d="M245.68,86.45c.62,3.45,3.24,6.21,6.65,7.01"/>
  </g>
  <g id="ARC1" data-name="ARC">
    <path class="st0" d="M245.4,43.48c-2.85-.64-5.67,1.15-6.31,4-.15.69-.17,1.4-.04,2.09"/>
  </g>
  <g id="ARC2" data-name="ARC">
    <path class="st0" d="M213.85,3.79c-22.62-4.39-45.88-4.39-68.5,0"/>
  </g>
  <g id="ARC3" data-name="ARC">
    <path class="st0" d="M252.22,242.67c-7-72.55-17.1-144.77-30.27-216.45"/>
  </g>
  <g id="ARC4" data-name="ARC">
    <path class="st0" d="M245.86,240.06c-6.99-72.4-17.07-144.46-30.21-216"/>
  </g>
  <g id="ARC5" data-name="ARC">
    <path class="st0" d="M279.36,399.82c-65.61-17.79-134.78-17.83-200.41-.12"/>
  </g>
  <g id="ARC6" data-name="ARC">
    <path class="st0" d="M84.12,598.73c61.52,21.21,128.35,21.33,189.94.34"/>
  </g>
  <g id="ARC7" data-name="ARC">
    <path class="st0" d="M249.3,260.98c-46.33-5.1-93.08-5.1-139.41,0"/>
  </g>
  <g id="ARC8" data-name="ARC">
    <path class="st0" d="M101.82,741.21c50.74,15.18,104.81,15.18,155.55,0"/>
  </g>
  <g id="ARC9" data-name="ARC">
    <path class="st0" d="M80.63,819.11c65.28,13.57,132.65,13.57,197.93,0"/>
  </g>
  <g id="ARC10" data-name="ARC">
    <path class="st0" d="M58.34,30.6c-7.61,2.73-13.55,8.8-16.12,16.47"/>
  </g>
  <g id="ARC11" data-name="ARC">
    <path class="st0" d="M53.12,98.95c-.27,2.91,1.88,5.48,4.78,5.74.57.05,1.14.01,1.69-.12"/>
  </g>
  <g id="ARC12" data-name="ARC">
    <path class="st0" d="M106.86,93.46c3.42-.8,6.03-3.56,6.65-7.01"/>
  </g>
  <g id="ARC13" data-name="ARC">
    <path class="st0" d="M120.15,49.58c.52-2.87-1.39-5.62-4.26-6.14-.69-.12-1.41-.11-2.09.04"/>
  </g>
  <g id="ARC14" data-name="ARC">
    <path class="st0" d="M60.13,57.97c-2.04.64-3.49,2.44-3.69,4.56"/>
  </g>
  <g id="ARC15" data-name="ARC">
    <path class="st0" d="M137.24,26.21c-13.17,71.69-23.27,143.9-30.27,216.45"/>
  </g>
  <g id="ARC16" data-name="ARC">
    <path class="st0" d="M143.54,24.06c-13.14,71.54-23.22,143.6-30.21,216"/>
  </g>
  <g id="ARC17" data-name="ARC">
    <path class="st0" d="M37.06,787.47c2.84,12.32,12.07,22.17,24.18,25.81"/>
  </g>
  <g id="ARC18" data-name="ARC">
    <path class="st0" d="M43.23,813.21c.06.13.12.27.18.4"/>
  </g>
  <g id="ARC19" data-name="ARC">
    <path class="st0" d="M43.41,813.6c.57,1.15,1.3,2.21,2.17,3.15"/>
  </g>
  <g id="ARC20" data-name="ARC">
    <path class="st0" d="M45.58,816.76c6.05,5.5,13.31,9.49,21.19,11.67"/>
  </g>
  <g id="ARC21" data-name="ARC">
    <path class="st0" d="M66.77,828.42c12.51,4.06,25.34,7.02,38.36,8.85"/>
  </g>
  <g id="ARC22" data-name="ARC">
    <path class="st0" d="M105.13,837.27c16.47,2.45,33.06,4.02,49.7,4.69"/>
  </g>
  <g id="ARC23" data-name="ARC">
    <path class="st0" d="M154.83,841.96c8.25.36,16.51.54,24.76.54"/>
  </g>
  <g id="ARC24" data-name="ARC">
    <path class="st0" d="M37.14,65.04c-11.89,45.56-18.07,92.42-18.39,139.5"/>
  </g>
  <g id="ARC25" data-name="ARC">
    <path class="st0" d="M299.59,104.57c2.84.67,5.69-1.09,6.35-3.93.13-.55.17-1.12.12-1.69"/>
  </g>
  <g id="ARC26" data-name="ARC">
    <path class="st0" d="M302.74,62.53c-.19-2.13-1.65-3.93-3.69-4.56"/>
  </g>
  <g id="ARC27" data-name="ARC">
    <path class="st0" d="M340.43,204.54c-.32-47.08-6.49-93.94-18.39-139.5"/>
  </g>
  <g id="ARC28" data-name="ARC">
    <path class="st0" d="M316.97,47.08c-2.57-7.67-8.51-13.74-16.12-16.47"/>
  </g>
  <g id="ARC29" data-name="ARC">
    <path class="st0" d="M314.69,290c0-3.72-.89-7.38-2.6-10.68"/>
  </g>
  <g id="ARC30" data-name="ARC">
    <path class="st0" d="M312.1,279.32c-4.74-8.34-11.73-15.18-20.17-19.73"/>
  </g>
  <g id="ARC31" data-name="ARC">
    <path class="st0" d="M291.93,259.59c-11.67-6.72-24.21-11.8-37.27-15.1"/>
  </g>
  <g id="ARC32" data-name="ARC">
    <path class="st0" d="M254.65,244.49c-15.95-4.2-32.25-6.93-48.7-8.17"/>
  </g>
  <g id="ARC33" data-name="ARC">
    <path class="st0" d="M205.95,236.32c-17.54-1.4-35.17-1.4-52.71,0"/>
  </g>
  <g id="ARC34" data-name="ARC">
    <path class="st0" d="M153.24,236.32c-16.45,1.24-32.75,3.98-48.7,8.17"/>
  </g>
  <g id="ARC35" data-name="ARC">
    <path class="st0" d="M104.54,244.49c-13.06,3.3-25.6,8.38-37.27,15.1"/>
  </g>
  <g id="ARC36" data-name="ARC">
    <path class="st0" d="M67.26,259.59c-8.44,4.55-15.43,11.39-20.17,19.73"/>
  </g>
  <g id="ARC37" data-name="ARC">
    <path class="st0" d="M47.09,279.32c-1.71,3.3-2.6,6.96-2.6,10.68"/>
  </g>
  <g id="ARC38" data-name="ARC">
    <path class="st0" d="M297.95,813.28c12.11-3.64,21.34-13.49,24.18-25.81"/>
  </g>
  <g id="ARC39" data-name="ARC">
    <path class="st0" d="M179.59,842.5c.56,0,1.12,0,1.68,0"/>
  </g>
  <g id="ARC40" data-name="ARC">
    <path class="st0" d="M181.28,842.5c17.47-.03,34.93-.9,52.32-2.63"/>
  </g>
  <g id="ARC41" data-name="ARC">
    <path class="st0" d="M233.59,839.87c14.84-1.4,29.57-3.81,44.1-7.19"/>
  </g>
  <g id="ARC42" data-name="ARC">
    <path class="st0" d="M277.69,832.68c10.17-2.16,19.99-5.75,29.16-10.65"/>
  </g>
  <g id="ARC43" data-name="ARC">
    <path class="st0" d="M306.85,822.03c1.53-.9,2.99-1.91,4.38-3.02"/>
  </g>
  <g id="ARC44" data-name="ARC">
    <path class="st0" d="M311.22,819.01c1.15-.92,2.19-1.96,3.11-3.11"/>
  </g>
  <g id="ARC45" data-name="ARC">
    <path class="st0" d="M314.33,815.9c.66-.82,1.2-1.73,1.62-2.69"/>
  </g>
  <g id="CIRCLE">
    <circle class="st0" cx="179.59" cy="10.7" r="6.89"/>
  </g>
</svg>